<?xml version="1.0" encoding="UTF-8" standalone="no"?>
<!-- Created with Inkscape (http://www.inkscape.org/) -->

<svg
   version="1.1"
   id="svg1"
   width="154"
   height="42"
   viewBox="0 0 154 42"
   sodipodi:docname="admin_logo.svg"
   inkscape:version="1.4.3 (0d15f75, 2025-12-25)"
   xmlns:inkscape="http://www.inkscape.org/namespaces/inkscape"
   xmlns:sodipodi="http://sodipodi.sourceforge.net/DTD/sodipodi-0.dtd"
   xmlns:xlink="http://www.w3.org/1999/xlink"
   xmlns="http://www.w3.org/2000/svg"
   xmlns:svg="http://www.w3.org/2000/svg">
  <sodipodi:namedview
     id="namedview1"
     pagecolor="#ffffff"
     bordercolor="#000000"
     borderopacity="0.25"
     inkscape:showpageshadow="2"
     inkscape:pageopacity="0.0"
     inkscape:pagecheckerboard="0"
     inkscape:deskcolor="#d1d1d1"
     inkscape:zoom="5.7564935"
     inkscape:cx="66.099267"
     inkscape:cy="17.979695"
     inkscape:window-width="1920"
     inkscape:window-height="1051"
     inkscape:window-x="-9"
     inkscape:window-y="-9"
     inkscape:window-maximized="1"
     inkscape:current-layer="svg1" />
  <defs
     id="defs1">
    <linearGradient
       id="linearGradient1">
      <stop
         style="stop-color:#38cca1;stop-opacity:1;"
         offset="0.16"
         id="stop1" />
      <stop
         style="stop-color:#259275;stop-opacity:1;"
         offset="0.54000002"
         id="stop2" />
    </linearGradient>
    <linearGradient
       id="linearGradient200">
      <stop
         style="stop-color:#5f6fff;stop-opacity:1;"
         offset="0.09259259"
         id="stop200" />
      <stop
         style="stop-color:#00084d;stop-opacity:1;"
         offset="0.44"
         id="stop201" />
    </linearGradient>
    <clipPath
       clipPathUnits="userSpaceOnUse"
       id="clipPath1">
      <rect
         style="fill:none"
         id="rect2"
         width="758.47296"
         height="236.02397"
         x="328.22089"
         y="367.55823"
         ry="1.2292917" />
    </clipPath>
    <linearGradient
       xlink:href="#linearGradient200"
       id="linearGradient201"
       x1="406.51904"
       y1="470.12744"
       x2="1143.1525"
       y2="470.12744"
       gradientUnits="userSpaceOnUse"
       gradientTransform="matrix(0.20676909,0,0,0.181908,-82.955654,-64.4133)" />
    <linearGradient
       xlink:href="#linearGradient1"
       id="linearGradient2"
       x1="1.099924"
       y1="21.106597"
       x2="153.41231"
       y2="21.106597"
       gradientUnits="userSpaceOnUse" />
  </defs>
  <g
     id="g1"
     style="fill:url(#linearGradient2);fill-opacity:1">
    <path
       style="fill:url(#linearGradient2);stroke-width:0.193941;fill-opacity:1"
       d="m 39.069629,41.036651 c -5.198413,-0.985791 -8.875895,-5.010992 -8.888014,-9.728402 -0.0069,-2.590673 1.068667,-4.785094 3.294603,-6.723341 2.212346,-1.926413 5.127343,-3.081402 7.797986,-3.089745 1.479634,-0.0047 3.944875,0.502029 5.396281,1.109037 2.620756,1.096049 5.177033,3.887254 5.824932,6.360244 0.29951,1.14322 0.26572,3.916047 -0.06076,4.988725 -1.076265,3.535772 -4.450029,6.33496 -8.558498,7.100916 -1.715383,0.319809 -3.05371,0.314954 -4.806492,-0.01744 z m 4.594044,-5.491788 0.05828,-2.137419 2.429536,-0.05124 2.429542,-0.05126 V 31.309729 29.314516 H 46.099801 43.61857 V 27.12547 24.93642 l -2.222763,0.05163 -2.222771,0.05163 -0.05828,2.137421 -0.05827,2.137419 H 36.685202 34.31392 v 2.000987 2.000989 h 2.377842 2.377848 v 2.061623 c 0,1.133894 0.06203,2.116197 0.137843,2.182896 0.07582,0.0667 1.096367,0.121271 2.2679,0.121271 h 2.130054 z M 2.7816558,36.980019 C 1.8436012,36.470255 1.4810884,36.029844 1.2610152,35.132634 1.139908,34.638864 1.0789153,29.040728 1.1064638,20.946746 1.1569923,6.0980669 1.0663717,7.0380268 2.5586728,5.8853143 3.5446265,5.1237162 4.4366002,4.9410525 7.1754958,4.9398591 l 2.3261538,-0.00113 v 1.2823895 c 0,1.443895 0.2816315,2.0727168 1.2490524,2.7888735 0.531727,0.3936214 0.851174,0.4764367 1.83777,0.4764367 2.213087,0 3.322118,-1.1080744 3.322699,-3.3198217 l 4.15e-4,-1.227878 h 8.167378 8.167378 v 1.1896507 c 0,2.1817239 1.142677,3.3560541 3.266884,3.3573704 2.146493,0.00109 3.048807,-0.8697731 3.20251,-3.0917543 l 0.09437,-1.3643096 2.335963,-0.051727 c 2.154825,-0.04771 2.420349,-0.015404 3.424186,0.4166768 0.766781,0.3300426 1.275565,0.7172321 1.722457,1.3107938 l 0.634232,0.8423851 v 6.720606 6.720624 L 46.461716,20.869728 C 46.205835,20.8041 45.507991,20.654872 44.91095,20.538097 l -1.085542,-0.212319 v -3.054882 c 0,-2.812338 -0.03283,-3.083768 -0.413536,-3.418697 -0.407538,-0.358539 -0.689233,-0.363817 -19.404251,-0.363817 -18.135292,0 -19.0061185,0.01497 -19.3329057,0.332659 -0.309609,0.300985 -0.3422035,1.277063 -0.3422035,10.24961 0,9.358352 0.021226,9.93382 0.3762568,10.216508 0.3387257,0.269686 1.5674468,0.304248 12.3192324,0.346534 l 11.942982,0.04697 0.694333,1.318834 0.694327,1.318834 -13.478792,-7.87e-4 C 4.1200301,37.317163 3.3690107,37.298957 2.7817459,36.979827 Z m 6.3049834,-6.619531 c -6.911e-4,-0.325161 -0.06076,-1.143746 -0.1332806,-1.819081 l -0.131815,-1.227879 h 2.2009744 2.200975 v 1.819077 1.819083 H 11.155799 9.0881118 Z m 6.2045478,-1.227883 v -1.819077 h 2.171068 2.171078 v 1.819077 1.819083 h -2.171078 -2.171068 z m 6.40984,0 v -1.819077 h 2.171073 2.171079 v 1.819077 1.819083 H 23.8721 21.701027 Z m 60.893485,1.382718 c -2.554315,-0.710694 -3.891194,-2.145197 -4.167627,-4.471973 -0.246418,-2.074112 0.723898,-4.185268 2.360689,-5.136297 1.136076,-0.660091 2.225002,-0.921093 3.806516,-0.912385 3.224884,0.01774 5.133966,1.871987 5.133966,4.986459 v 1.240953 h -4.045931 -4.045934 l 0.134355,0.409294 c 0.581848,1.772465 2.934381,2.414965 5.884623,1.607147 0.914176,-0.250315 1.294467,-0.288712 1.351155,-0.13643 0.187692,0.504276 0.499802,1.649523 0.457665,1.67931 -1.178118,0.832593 -5.034155,1.244565 -6.869477,0.733922 z m 4.032001,-6.746131 c 0,-0.440667 -0.180605,-0.811638 -0.592685,-1.217384 -0.517917,-0.509955 -0.723517,-0.583577 -1.629762,-0.583577 -1.585243,0 -2.227254,0.480296 -2.657389,1.988023 l -0.127452,0.446747 h 2.50365 2.503638 z m 7.984496,6.732765 c -1.086858,-0.340801 -2.279246,-1.406309 -2.833722,-2.532213 -0.656381,-1.332832 -0.654136,-3.650616 0.0046,-4.972356 0.530562,-1.064237 1.914181,-2.291992 3.075977,-2.729476 1.107285,-0.416952 3.036703,-0.375286 4.226281,0.09127 l 0.982165,0.385198 v -2.816993 -2.817001 l 1.60245,0.05313 1.60246,0.05314 v 7.640136 7.640135 l -1.49907,0.05344 -1.49907,0.05345 v -0.644655 c 0,-0.354555 -0.0519,-0.644647 -0.11552,-0.644647 -0.0636,0 -0.46467,0.246859 -0.891429,0.548575 -1.290158,0.91214 -3.024686,1.150175 -4.655326,0.638867 z m 4.147434,-2.215127 c 1.211896,-0.505941 1.327987,-0.821547 1.262747,-3.433143 l -0.058,-2.324675 -0.827069,-0.255609 c -1.84294,-0.569562 -3.729937,0.257847 -4.23947,1.858919 -0.313941,0.986458 -0.17169,2.542181 0.306895,3.356379 0.592201,1.007515 2.192695,1.366842 3.554954,0.798129 z m 16.815757,2.361466 c -0.28432,-0.03957 -1.15626,-0.246522 -1.93769,-0.4599 l -1.42078,-0.387966 0.13779,-1.183143 c 0.0758,-0.650728 0.17915,-1.242041 0.22972,-1.314016 0.0506,-0.07197 0.67443,0.07938 1.38638,0.336348 1.68057,0.606596 4.88324,0.697372 5.809,0.164643 0.77977,-0.448732 1.02243,-1.082178 0.75244,-1.964292 -0.18042,-0.589429 -0.38342,-0.783568 -1.19148,-1.139518 -0.5357,-0.23598 -1.48576,-0.574381 -2.11124,-0.752006 -3.71732,-1.055653 -5.08332,-2.392149 -4.92733,-4.820892 0.0667,-1.037086 0.18983,-1.39408 0.70283,-2.036232 1.21238,-1.517589 4.21157,-2.320261 7.28844,-1.9506 1.66908,0.20053 3.13915,0.657436 3.13915,0.975683 0,0.304355 -0.39796,2.148645 -0.47902,2.219965 -0.0346,0.03026 -0.52224,-0.09738 -1.08409,-0.283641 -3.03693,-1.006859 -6.08735,-0.454099 -6.08735,1.103071 0,1.10908 0.64875,1.552956 3.39704,2.324263 3.72918,1.046586 5.08049,2.272254 5.08049,4.608098 0,2.244302 -1.43896,3.806919 -4.05835,4.407154 -1.10085,0.252257 -3.37273,0.327387 -4.62595,0.152981 z m 19.89221,-0.211106 c -1.51698,-0.477578 -2.51892,-1.246475 -3.2473,-2.491993 -0.55003,-0.940517 -0.61947,-1.237391 -0.61293,-2.619793 0.01,-1.801139 0.4244,-2.820496 1.55728,-3.817171 1.18351,-1.041207 2.50268,-1.467195 4.5499,-1.469248 2.32667,-0.0023 3.51733,0.35978 4.75066,1.444826 1.1766,1.035125 1.64431,2.151006 1.64431,3.923033 0,2.167436 -1.22149,3.878459 -3.50202,4.905492 -1.09032,0.491029 -3.77005,0.556118 -5.1399,0.124854 z m 4.32436,-2.542839 c 1.43697,-1.41488 1.24797,-4.505762 -0.33116,-5.416054 -1.29166,-0.744558 -3.07262,-0.37999 -3.97978,0.814678 -0.38789,0.510846 -0.46784,0.858067 -0.46069,2.000988 0.0148,2.329648 1.00634,3.374202 3.07593,3.23975 0.93857,-0.06098 1.2136,-0.164683 1.6957,-0.639362 z m 9.11646,2.707761 c -0.37424,-0.08429 -0.87228,-0.305958 -1.10667,-0.492606 -0.89033,-0.708838 -1.00408,-1.182958 -1.00706,-4.196731 -0.003,-3.603554 -0.019,-3.658119 -1.05595,-3.728604 -0.44519,-0.03026 -0.80781,-0.116414 -0.80578,-0.191452 0.002,-0.07504 0.003,-0.504796 0.003,-0.955017 v -0.818587 h 0.93046 0.93046 v -1.258899 c 0,-1.413863 -0.15289,-1.300284 2.11939,-1.574438 l 0.98213,-0.118501 v 1.47592 1.475918 h 1.65416 1.65416 v 1.000494 1.000496 h -1.65416 -1.65416 v 2.736886 c 0,2.70013 0.008,2.743202 0.534,3.206672 0.48319,0.425093 0.63845,0.45898 1.63232,0.356217 1.22827,-0.127003 1.34878,-0.02991 1.34878,1.086879 0,0.515654 -0.10046,0.660056 -0.56862,0.817348 -0.77469,0.260286 -3.10408,0.365603 -3.9371,0.178005 z M 58.505919,22.947734 v -7.640135 h 1.92499 1.924985 l 2.623332,4.684131 c 1.442831,2.57627 2.623603,4.552842 2.623934,4.392378 4.15e-4,-0.160469 1.11423,-2.268329 2.475327,-4.684131 l 2.474726,-4.392378 h 1.867428 1.867417 v 7.640135 7.640137 H 74.6278 72.967546 l 0.0578,-5.258108 c 0.0318,-2.891964 0.01127,-5.231773 -0.04556,-5.199579 -0.05682,0.03217 -1.029845,1.698771 -2.162193,3.703507 l -2.058818,3.64498 -1.080025,0.118714 c -0.594012,0.06528 -1.187383,0.08723 -1.318604,0.04876 -0.250371,-0.07342 -3.52457,-5.518146 -4.079399,-6.783708 -0.177052,-0.403844 -0.377701,-0.791672 -0.44589,-0.861838 -0.06817,-0.07017 -0.09336,2.283269 -0.05592,5.229855 l 0.06809,5.357426 h -1.670533 -1.670539 z m 47.970431,2.455761 v -5.18438 h 1.55077 1.55076 v 5.18438 5.184376 h -1.55076 -1.55077 z m 19.84984,-2.539062 v -7.738741 h 1.65637 1.65643 l -0.054,7.685613 -0.054,7.685614 -1.60247,0.05314 -1.60245,0.05314 z m -117.275,1.17475 C 9.030865,23.238791 9.0076423,22.399737 8.9994783,22.17463 8.9850287,21.774161 9.0292697,21.766154 11.0524,21.803335 l 2.067692,0.03802 0.0589,1.826551 0.0589,1.826553 H 11.162961 9.0880369 Z m 6.284454,-0.409293 0.0589,-1.864554 2.119381,-0.05184 2.11938,-0.05185 v 1.9164 1.916395 H 17.455 15.276693 Z m 6.365383,0.04548 c 0,-1.323572 0.07041,-1.824399 0.258458,-1.838619 0.142157,-0.01077 1.095877,-0.01866 2.119381,-0.01759 l 1.860922,0.0018 0.0589,1.83667 0.0589,1.83667 h -2.178316 -2.178307 z m 6.409838,0 v -1.819083 h 2.171074 2.171079 v 0.65154 c 0,0.468381 -0.195761,0.864704 -0.696359,1.409789 -0.382996,0.417038 -0.804981,0.94243 -0.937737,1.167538 -0.209344,0.354974 -0.405061,0.409293 -1.474717,0.409293 h -1.23334 z M 15.291187,18.400034 v -1.455261 h 2.171068 2.171078 v 1.455261 1.455265 h -2.171078 -2.171068 z m 6.40984,0 v -1.455261 h 2.171073 2.171079 v 1.455261 1.455265 H 23.8721 21.701027 Z m 6.351305,1.318833 c -0.04563,-0.07503 -0.04045,-0.732665 0.01154,-1.461397 l 0.09447,-1.324966 2.095659,0.05161 2.095663,0.05161 0.0604,1.40979 0.06041,1.409784 h -2.167561 c -1.192161,0 -2.204889,-0.06139 -2.250507,-0.13643 z m 6.406439,0.02132 c -0.07966,-0.07008 -0.144832,-0.73058 -0.144832,-1.467775 v -1.340355 l 2.119382,0.05184 2.11938,0.05184 v 1.36431 1.364312 l -1.974548,0.05162 c -1.085998,0.02838 -2.039724,-0.0056 -2.119382,-0.0758 z m 72.905609,-1.541541 c -2.11245,-0.537382 -1.53461,-3.072942 0.70032,-3.072942 2.1375,0 2.73157,2.299321 0.7795,3.016884 -0.38524,0.141601 -0.72667,0.250077 -0.75875,0.241054 -0.032,-0.0091 -0.35656,-0.09226 -0.72107,-0.184996 z M 11.551419,8.1619294 C 10.86079,7.6954328 10.74226,7.1571783 10.74226,4.4873483 c 0,-2.640989 0.0034,-2.6612179 0.547118,-3.1043976 0.752062,-0.61318189 1.969958,-0.61299012 2.667202,3.653e-4 0.495455,0.4359335 0.507525,0.5140298 0.507525,3.2826667 0,2.768638 -0.01211,2.8467347 -0.507525,3.2826132 -0.562795,0.4951265 -1.822542,0.6068629 -2.405161,0.2133335 z m 23.034494,0.049991 C 33.813333,7.9380678 33.693629,7.450614 33.693629,4.5783039 c 0,-2.7393437 0.0021,-2.7508754 0.547116,-3.1953529 0.752062,-0.61318189 1.969959,-0.61299012 2.667202,3.653e-4 0.495455,0.4358837 0.507526,0.5139527 0.507526,3.2830286 0,2.8337119 -6.16e-4,2.8369724 -0.547117,3.2826133 -0.56961,0.4644298 -1.43326,0.5639083 -2.282443,0.2629087 z"
       id="path9" />
  </g>
  <text
     xml:space="preserve"
     style="font-size:8.60028px;writing-mode:lr-tb;direction:ltr;fill:#185d48;fill-opacity:0.995745;stroke-width:0.716689"
     x="44.345066"
     y="51.10577"
     id="text2"
     transform="scale(1.3156598,0.76007493)"><tspan
       id="tspan2"
       x="44.345066"
       y="51.10577"
       style="fill:#185d48;fill-opacity:0.995745;stroke-width:0.716689">dashboard panel</tspan></text>
</svg>
